<mxfile host="app.diagrams.net" modified="2022-10-05T13:29:49.859Z" agent="5.0 (Windows NT 10.0; Win64; x64) AppleWebKit/537.36 (KHTML, like Gecko) Chrome/106.0.0.0 Safari/537.36" etag="KjWPshD8WnmI9Pyh0Dq1" version="20.4.0" type="github">
  <diagram id="p0DPjhDbTh8TtTHQ1fmh" name="PÃ¡gina-1">
    <mxGraphModel dx="1026" dy="557" grid="1" gridSize="10" guides="1" tooltips="1" connect="1" arrows="1" fold="1" page="1" pageScale="1" pageWidth="827" pageHeight="1169" math="0" shadow="0">
      <root>
        <mxCell id="0" />
        <mxCell id="1" parent="0" />
        <mxCell id="eG16ruXwNQw3Kg_H_d8M-3" value="" style="edgeStyle=orthogonalEdgeStyle;rounded=0;orthogonalLoop=1;jettySize=auto;html=1;" edge="1" parent="1" source="eG16ruXwNQw3Kg_H_d8M-1" target="eG16ruXwNQw3Kg_H_d8M-2">
          <mxGeometry relative="1" as="geometry" />
        </mxCell>
        <mxCell id="eG16ruXwNQw3Kg_H_d8M-1" value="START" style="rounded=1;whiteSpace=wrap;html=1;" vertex="1" parent="1">
          <mxGeometry x="360" y="10" width="120" height="60" as="geometry" />
        </mxCell>
        <mxCell id="eG16ruXwNQw3Kg_H_d8M-7" value="" style="edgeStyle=orthogonalEdgeStyle;rounded=0;orthogonalLoop=1;jettySize=auto;html=1;" edge="1" parent="1" source="eG16ruXwNQw3Kg_H_d8M-2" target="eG16ruXwNQw3Kg_H_d8M-4">
          <mxGeometry relative="1" as="geometry" />
        </mxCell>
        <mxCell id="eG16ruXwNQw3Kg_H_d8M-2" value="print logo" style="rounded=1;whiteSpace=wrap;html=1;" vertex="1" parent="1">
          <mxGeometry x="360" y="100" width="120" height="60" as="geometry" />
        </mxCell>
        <mxCell id="eG16ruXwNQw3Kg_H_d8M-6" value="" style="edgeStyle=orthogonalEdgeStyle;rounded=0;orthogonalLoop=1;jettySize=auto;html=1;" edge="1" parent="1" source="eG16ruXwNQw3Kg_H_d8M-4" target="eG16ruXwNQw3Kg_H_d8M-5">
          <mxGeometry relative="1" as="geometry" />
        </mxCell>
        <mxCell id="eG16ruXwNQw3Kg_H_d8M-4" value="ask for name input" style="rounded=1;whiteSpace=wrap;html=1;" vertex="1" parent="1">
          <mxGeometry x="360" y="190" width="120" height="60" as="geometry" />
        </mxCell>
        <mxCell id="eG16ruXwNQw3Kg_H_d8M-9" value="" style="edgeStyle=orthogonalEdgeStyle;rounded=0;orthogonalLoop=1;jettySize=auto;html=1;" edge="1" parent="1" source="eG16ruXwNQw3Kg_H_d8M-5" target="eG16ruXwNQw3Kg_H_d8M-8">
          <mxGeometry relative="1" as="geometry" />
        </mxCell>
        <mxCell id="eG16ruXwNQw3Kg_H_d8M-5" value="ask for bid price" style="whiteSpace=wrap;html=1;rounded=1;" vertex="1" parent="1">
          <mxGeometry x="360" y="280" width="120" height="60" as="geometry" />
        </mxCell>
        <mxCell id="eG16ruXwNQw3Kg_H_d8M-14" value="" style="edgeStyle=orthogonalEdgeStyle;rounded=0;orthogonalLoop=1;jettySize=auto;html=1;" edge="1" parent="1" source="eG16ruXwNQw3Kg_H_d8M-8" target="eG16ruXwNQw3Kg_H_d8M-12">
          <mxGeometry relative="1" as="geometry" />
        </mxCell>
        <mxCell id="eG16ruXwNQw3Kg_H_d8M-8" value="add name and bid into a dictionary" style="rounded=1;whiteSpace=wrap;html=1;" vertex="1" parent="1">
          <mxGeometry x="360" y="370" width="120" height="60" as="geometry" />
        </mxCell>
        <mxCell id="eG16ruXwNQw3Kg_H_d8M-16" style="edgeStyle=orthogonalEdgeStyle;rounded=0;orthogonalLoop=1;jettySize=auto;html=1;entryX=0;entryY=0.5;entryDx=0;entryDy=0;exitX=0.5;exitY=0;exitDx=0;exitDy=0;" edge="1" parent="1" source="eG16ruXwNQw3Kg_H_d8M-10" target="eG16ruXwNQw3Kg_H_d8M-4">
          <mxGeometry relative="1" as="geometry">
            <mxPoint x="200" y="460" as="sourcePoint" />
          </mxGeometry>
        </mxCell>
        <mxCell id="eG16ruXwNQw3Kg_H_d8M-10" value="clear the screen" style="rounded=1;whiteSpace=wrap;html=1;" vertex="1" parent="1">
          <mxGeometry x="140" y="470" width="120" height="60" as="geometry" />
        </mxCell>
        <mxCell id="eG16ruXwNQw3Kg_H_d8M-15" value="" style="edgeStyle=orthogonalEdgeStyle;rounded=0;orthogonalLoop=1;jettySize=auto;html=1;" edge="1" parent="1" source="eG16ruXwNQw3Kg_H_d8M-12" target="eG16ruXwNQw3Kg_H_d8M-10">
          <mxGeometry relative="1" as="geometry" />
        </mxCell>
        <mxCell id="eG16ruXwNQw3Kg_H_d8M-21" style="edgeStyle=orthogonalEdgeStyle;rounded=0;orthogonalLoop=1;jettySize=auto;html=1;entryX=0.5;entryY=0;entryDx=0;entryDy=0;" edge="1" parent="1" source="eG16ruXwNQw3Kg_H_d8M-12" target="eG16ruXwNQw3Kg_H_d8M-20">
          <mxGeometry relative="1" as="geometry" />
        </mxCell>
        <mxCell id="eG16ruXwNQw3Kg_H_d8M-12" value="&#xa;&lt;span style=&quot;color: rgb(0, 0, 0); font-family: Helvetica; font-size: 12px; font-style: normal; font-variant-ligatures: normal; font-variant-caps: normal; font-weight: 400; letter-spacing: normal; orphans: 2; text-align: center; text-indent: 0px; text-transform: none; widows: 2; word-spacing: 0px; -webkit-text-stroke-width: 0px; background-color: rgb(248, 249, 250); text-decoration-thickness: initial; text-decoration-style: initial; text-decoration-color: initial; float: none; display: inline !important;&quot;&gt;ask if there are other users to bid&lt;/span&gt;&#xa;&#xa;" style="rhombus;whiteSpace=wrap;html=1;" vertex="1" parent="1">
          <mxGeometry x="350" y="460" width="140" height="80" as="geometry" />
        </mxCell>
        <mxCell id="eG16ruXwNQw3Kg_H_d8M-18" value="Text" style="text;html=1;strokeColor=none;fillColor=none;align=center;verticalAlign=middle;whiteSpace=wrap;rounded=0;" vertex="1" parent="1">
          <mxGeometry x="450" y="250" width="60" height="30" as="geometry" />
        </mxCell>
        <mxCell id="eG16ruXwNQw3Kg_H_d8M-19" value="yes" style="text;html=1;strokeColor=none;fillColor=none;align=center;verticalAlign=middle;whiteSpace=wrap;rounded=0;" vertex="1" parent="1">
          <mxGeometry x="280" y="470" width="60" height="30" as="geometry" />
        </mxCell>
        <mxCell id="eG16ruXwNQw3Kg_H_d8M-20" value="find the highest price and print the result" style="rounded=1;whiteSpace=wrap;html=1;" vertex="1" parent="1">
          <mxGeometry x="520" y="555" width="120" height="60" as="geometry" />
        </mxCell>
        <mxCell id="eG16ruXwNQw3Kg_H_d8M-23" value="no" style="text;html=1;strokeColor=none;fillColor=none;align=center;verticalAlign=middle;whiteSpace=wrap;rounded=0;" vertex="1" parent="1">
          <mxGeometry x="510" y="470" width="60" height="30" as="geometry" />
        </mxCell>
      </root>
    </mxGraphModel>
  </diagram>
</mxfile>
